<?xml version="1.0" encoding="utf-8"?>
<!-- Generator: Adobe Illustrator 26.5.0, SVG Export Plug-In . SVG Version: 6.00 Build 0)  -->
<svg version="1.1" id="Layer_1" xmlns="http://www.w3.org/2000/svg" xmlns:xlink="http://www.w3.org/1999/xlink" x="0px" y="0px"
	 viewBox="0 0 1366 768" style="enable-background:new 0 0 1366 768;" xml:space="preserve">
<style type="text/css">
	.st0{fill:#D41700;}
</style>
<g>
	<path class="st0" d="M142.8,68.3l80.6,0.4l-6,25.2l-25.1-2.1c-0.2,0-0.3,0.1-0.3,0.3l-11.7,60.2l-35.3-0.2l14.9-57.2l-19.8-2.9
		L142.8,68.3z"/>
	<polygon class="st0" points="237.2,68.7 217.2,152.4 250.8,152.6 256.5,120.9 281.9,121.4 275,152.7 307.7,152.8 326.2,69.2 
		291.5,69 286.4,100.7 263.3,101 269.9,68.9 	"/>
	<polygon class="st0" points="345.8,69.3 325.8,152.9 411.1,153.4 416.4,135.5 367.4,134 366.8,124.3 419.7,125.4 421.2,108.3 
		373.6,106.8 373.7,95.9 427.7,94.9 429.9,69.7 	"/>
	<polygon class="st0" points="329,163.9 330.4,163.9 539.5,165 522.8,238.9 401,238.3 395,262.6 513.9,263.2 498.6,335.1 
		380.7,334.5 366.7,388.1 274.7,387.7 	"/>
	<polygon class="st0" points="561.9,236.7 674.6,237.2 675.9,389.7 613.1,389.4 612.6,372.7 561.2,371.2 549.8,389 481.4,388.7 	"/>
	<polygon points="610.7,284.8 610.5,330 581,336.7 	"/>
	<polygon class="st0" points="890.1,238.3 879.4,287.8 918.2,288 894.3,390.8 959.2,391.1 980.4,285.9 1025.1,288.2 1035.3,239 	"/>
	<path class="st0" d="M875.5,235.2l-9.3,45.1l-82.9-0.4l-3.6,10.3l65.1,4.1l8.4,12.1l2.3,10c-0.8,45.2-0.8,43.1-0.8,43.1
		s3.5,1.7-8,16.9c-11.5,15.3-23.2,18.9-23.2,18.9l-13.4,2.8l-127.9-6.4l11.3-43.4l89.6,2.9l1.2-9.1l-59.9-1.1c-15.4-9.6-20-25-20-25
		l0.2-36.9l3.3-16l1.8-8.9l18.5-15.2l8.5-4.5L875.5,235.2z"/>
	<polygon class="st0" points="83.3,406.6 21.5,676.7 136.3,677.3 152.1,614.3 311.2,614.3 330.6,527.4 176.5,529.1 183.3,496.6 
		341,499.4 363.1,408 	"/>
	<path class="st0" d="M350.1,499.4l61.6,0.3l-21.9,106.4l-0.3,6.5l2.6,6.5c0,0-16.6-0.9,1.5,0c18.1,0.9,18.1,0.9,18.1,0.9l7.7-19.9
		L447,499.9l62.5,0.3l-29.2,124.3c0,0-12.7,20.3-13.2,20.7s-11.4,10.1-18.5,15c-7,4.8-17.8,4.4-17.8,4.4l-81.5-1.6l-10.5-5.3
		c-13.1-16.7-13.1-16.7-13.1-16.7l-2.6-9L350.1,499.4z"/>
	<polygon class="st0" points="531.1,500.4 673.6,501.1 686.7,515 688.7,522.7 688.5,556 681.4,573.1 674.9,587.3 666.7,591.7 
		661.2,595.3 632.8,595.2 670.2,656.8 596.3,656.4 571.2,603.8 558.6,658.2 495.9,657.9 	"/>
	<polygon points="584.9,546.6 623.4,546.8 623.4,561.4 619.5,569.5 614.5,575.6 578.6,575.4 	"/>
	<polygon class="st0" points="724.4,499.3 688,657.3 751.1,659.2 788.4,501.6 	"/>
	<polygon class="st0" points="1008.2,501.9 1071.3,502.2 1050.7,604.2 1049.4,614.3 1048.8,619.6 1068.4,619.7 1105.2,502.4 
		1166.2,502.7 1157.2,558.8 1142,611.2 1135.8,635.5 1124,650.1 1107.3,659.8 1094.7,667.8 1017.9,667.5 1003.1,662.5 987.6,652.7 
		980.7,637.6 980.8,622.1 986.2,590.5 	"/>
	<polygon class="st0" points="1343.4,506.9 1334.5,549.9 1252.1,549.5 1245.9,559.6 1303.2,562 1316.6,570.6 1323.8,582 
		1323.3,625.5 1317.1,642.1 1302.7,655.9 1286.6,666 1266.4,668.7 1192.5,668.3 1165.4,664.1 1152.9,659.6 1162.1,617.4 1252,622.7 
		1250.6,610.9 1187.3,608.5 1173.7,592.2 1170.8,583.7 1171.2,554.4 1180.1,531.7 1195.4,511 1203.6,506.2 1213.5,503 	"/>
	<path class="st0" d="M856,494.1l81.4,1.6l20.8,8l10,11.3l8.3,13.5l-1.5,46.3l-6.1,29.9l-7.5,19l-15,19.9l-10.1,8.5l-8.8,6.6
		l-15.8,3.7l-88.7-0.4l-13.8-5.9l-12.9-9.2l-10-20.8l1.1-43.9l8.3-31.1l9.1-18.6l9.7-14.6c0,0,7.3-5.5,11.9-9.7
		c4.6-4.2,4.6-4.2,4.6-4.2L856,494.1z"/>
	<polygon class="st0" points="888.8,408.7 883.5,428.5 844.7,428.3 844.7,438.4 881.9,438.6 881.6,453.8 841.5,453.6 840.6,462.8 
		878.5,463 878.5,470.3 873.1,480.6 806.3,482.1 822,408.4 	"/>
	<polygon class="st0" points="780.2,408.2 810.9,409.9 793.6,480.2 765.2,481.9 769.5,453.9 755,453.8 746.3,481.8 720.5,481.7 
		736,408 762.7,408.1 764.9,408.1 759.1,433.4 776.1,432.9 	"/>
	<polygon class="st0" points="662.6,407.6 727.9,407.9 724,433.2 704.5,433.1 696.6,481.6 665.1,481.4 675.7,433 659.2,433.5 	"/>
	<polygon class="st0" points="560.5,409.5 620.6,407.4 631.7,419 631.5,446.2 621.1,465.6 609.8,476.9 603.8,481.1 545.9,480.8 	"/>
	<polygon points="581.9,432.2 599.6,432.3 599.6,447.2 592.9,455.7 579.2,455.7 	"/>
	<path class="st0" d="M516.5,406.9c30,2,30,2,30,2l-17.2,70.4l-31.8,1.4l-6.6-34.2l-2.8-0.3l-7.1,33.2l-27.9,1.1l14.4-73.7l34.4,0.2
		l6.8,34.2l3.5,0L516.5,406.9z"/>
	<polygon class="st0" points="394.8,403.5 443.6,403.8 446.2,408.5 445.9,480.3 418.3,480.2 419.2,468.9 391.6,469.1 386.5,480 
		359.8,479.9 361,465.6 	"/>
	<polygon points="418.7,428 418.6,451.5 401.8,451.4 	"/>
	<path d="M883.3,545l0.7,0l18.3,0.1c1.1,0,2.2,0.3,3.2,0.9l0,0c3,1.8,4.9,5.9,4.8,10.4l-0.1,29.1c0,1.6-0.3,3.2-0.8,4.7l-5.1,15.1
		c-0.3,0.8-4.1,15.8-4.4,16.4l1.2-10.2c-0.3,0.6-0.7,1.2-1.2,1.7l-4.3,5c-1.5,1.7-3.4,2.7-5.3,2.7l-21.2-0.1l-3.4,0l-4.3-6.1
		c-1.5-2.1-2.3-5-2.3-8l0.1-24l0-5.9c0-2.3,0.6-4.6,1.5-6.5l5.5-10.6c0.2-0.5,0.5-0.9,0.8-1.3l6.3-8.9c0.1-0.1,0.2-0.3,0.3-0.4
		l1-1.3c1.5-1.9,3.5-2.9,5.5-2.9L883.3,545z"/>
</g>
</svg>
