<?xml version="1.0" encoding="utf-8"?>
<!-- Generator: Adobe Illustrator 26.5.0, SVG Export Plug-In . SVG Version: 6.00 Build 0)  -->
<svg version="1.1" id="Layer_1" xmlns="http://www.w3.org/2000/svg" xmlns:xlink="http://www.w3.org/1999/xlink" x="0px" y="0px"
	 viewBox="0 0 1366 768" style="enable-background:new 0 0 1366 768;" xml:space="preserve">
<style type="text/css">
	.st0{fill:#FFFFFF;}
	.st1{fill:#231F20;}
</style>
<g>
	<path class="st0" d="M142.847,68.268l80.593,0.404l-5.966,25.177l-25.051-2.137c-0.157-0.013-0.3,0.129-0.341,0.341l-11.694,60.154
		l-35.333-0.177l14.887-57.25l-19.842-2.945L142.847,68.268z"/>
	<polygon class="st0" points="237.164,68.741 217.18,152.392 250.761,152.56 256.468,120.877 281.87,121.411 274.997,152.682 
		307.701,152.846 326.225,69.187 291.477,69.013 286.354,100.699 263.284,100.99 269.869,68.905 	"/>
	<polygon class="st0" points="345.79,69.285 325.806,152.936 411.071,153.364 416.417,135.502 367.366,134.036 366.831,124.276 
		419.68,125.354 421.225,108.287 373.635,106.828 373.69,95.852 427.716,94.903 429.887,69.707 	"/>
	<polygon class="st0" points="328.963,163.929 330.423,163.937 539.498,164.984 522.775,238.894 401.009,238.284 395.047,262.648 
		513.892,263.243 498.639,335.128 380.67,334.537 366.677,388.132 274.695,387.671 	"/>
	<polygon class="st0" points="561.915,236.651 674.629,237.216 675.909,389.682 613.128,389.367 612.628,372.696 561.241,371.219 
		549.763,389.05 481.434,388.707 	"/>
	<polygon class="st1" points="610.732,284.768 610.506,329.997 580.979,336.659 	"/>
	<polygon class="st0" points="890.128,238.296 879.367,287.842 918.204,288.037 894.328,390.777 959.153,391.102 980.413,285.91 
		1025.079,288.166 1035.254,239.024 	"/>
	<path class="st0" d="M875.543,235.174l-9.278,45.112l-82.929-0.416l-3.556,10.34l65.098,4.055l8.408,12.057l2.286,9.955
		c-0.81,45.154-0.8,43.083-0.8,43.083s3.496,1.675-7.969,16.946c-11.465,15.272-23.164,18.942-23.164,18.942l-13.447,2.833
		l-127.869-6.441l11.314-43.445l89.633,2.935l1.214-9.108l-59.857-1.129c-15.428-9.606-20.024-24.958-20.024-24.958l0.185-36.872
		l3.272-15.97l1.816-8.863l18.473-15.236l8.491-4.515L875.543,235.174z"/>
	<polygon class="st0" points="83.333,406.633 21.533,676.685 136.291,677.26 152.083,614.323 311.229,614.307 330.645,527.401 
		176.455,529.068 183.334,496.578 341.006,499.401 363.073,408.035 	"/>
	<path class="st0" d="M350.058,499.446l61.613,0.309l-21.85,106.409l-0.325,6.503l2.595,6.518c0,0-16.64-0.896,1.46,0.007
		c18.1,0.904,18.1,0.904,18.1,0.904l7.692-19.883l27.66-100.281l62.489,0.313l-29.24,124.26c0,0-12.658,20.264-13.244,20.668
		c-0.586,0.404-11.439,10.107-18.472,14.95c-7.033,4.844-17.835,4.383-17.835,4.383l-81.463-1.628l-10.486-5.338
		c-13.057-16.734-13.057-16.734-13.057-16.734l-2.583-8.957L350.058,499.446z"/>
	<polygon class="st0" points="531.101,500.353 673.599,501.068 686.67,514.956 688.675,522.691 688.508,556.028 681.414,573.068 
		674.919,587.265 666.72,591.696 661.154,595.327 632.83,595.185 670.19,656.763 596.313,656.392 571.172,603.82 558.635,658.236 
		495.854,657.922 	"/>
	<polygon class="st1" points="584.891,546.564 623.436,546.757 623.363,561.393 619.526,569.505 614.531,575.578 578.615,575.398 	
		"/>
	<polygon class="st0" points="724.418,499.29 688.001,657.258 751.065,659.201 788.356,501.643 	"/>
	<polygon class="st0" points="1008.24,501.932 1071.312,502.248 1050.653,604.191 1049.434,614.348 1048.823,619.631 
		1068.388,619.729 1105.185,502.418 1166.214,502.724 1157.172,558.783 1142.017,611.154 1135.763,635.516 1124.01,650.093 
		1107.317,659.767 1094.72,667.835 1017.923,667.45 1003.055,662.497 987.627,652.662 980.695,637.584 980.772,622.135 
		986.187,590.451 	"/>
	<polygon class="st0" points="1343.444,506.864 1334.468,549.915 1252.123,549.502 1245.94,559.635 1303.162,561.954 
		1316.552,570.559 1323.795,581.979 1323.285,625.478 1317.069,642.116 1302.692,655.867 1286.581,665.95 1266.418,668.695 
		1192.541,668.325 1165.405,664.123 1152.871,659.588 1162.135,617.353 1252.048,622.682 1250.647,610.885 1187.292,608.534 
		1173.65,592.204 1170.772,583.652 1171.211,554.382 1180.085,531.659 1195.373,511.001 1203.574,506.163 1213.518,502.961 	"/>
	<path class="st0" d="M855.995,494.054l81.39,1.628l20.766,8.032l10.018,11.332l8.255,13.458l-1.546,46.34l-6.063,29.852
		l-7.541,18.969l-14.993,19.948l-10.117,8.487l-8.793,6.563l-15.787,3.682l-88.696-0.445l-13.768-5.862l-12.875-9.212l-9.97-20.784
		l1.096-43.903l8.259-31.06l9.072-18.555l9.709-14.587c0,0,7.255-5.452,11.875-9.698c4.62-4.246,4.62-4.246,4.62-4.246
		L855.995,494.054z"/>
	<polygon class="st0" points="888.836,408.74 883.481,428.532 844.717,428.338 844.667,438.4 881.897,438.587 881.602,453.831 
		841.524,453.63 840.602,462.773 878.49,462.963 878.453,470.281 873.145,480.622 806.34,482.116 822.04,408.405 	"/>
	<polygon class="st0" points="780.21,408.195 810.863,409.873 793.647,480.223 765.167,481.91 769.469,453.879 755.015,453.807 
		746.333,481.816 720.491,481.686 735.972,407.973 762.69,408.107 764.88,408.118 759.059,433.397 776.145,432.873 	"/>
	<polygon class="st0" points="662.606,407.606 727.869,407.933 724.019,433.222 704.527,433.124 696.619,481.567 665.083,481.408 
		675.692,432.98 659.191,433.507 	"/>
	<polygon class="st0" points="560.538,409.533 620.557,407.395 631.668,419.038 631.532,446.175 621.141,465.637 609.77,476.862 
		603.762,481.101 545.945,480.811 	"/>
	<polygon class="st1" points="581.887,432.204 599.627,432.293 599.552,447.234 592.939,455.739 579.215,455.67 	"/>
	<path class="st0" d="M516.531,406.873c29.994,1.98,29.994,1.98,29.994,1.98l-17.216,70.35l-31.763,1.365l-6.618-34.184
		l-2.846-0.319l-7.102,33.201l-27.893,1.08l14.386-73.718l34.383,0.172l6.837,34.185l3.504,0.018L516.531,406.873z"/>
	<polygon class="st0" points="394.779,403.519 443.616,403.764 446.221,408.452 445.861,480.31 418.267,480.171 419.199,468.894 
		391.603,469.061 386.511,480.012 359.793,479.878 360.96,465.553 	"/>
	<polygon class="st1" points="418.747,428.033 418.629,451.511 401.766,451.426 	"/>
	<path class="st1" d="M883.262,544.96l0.73,0.004l18.329,0.092c1.104,0.006,2.195,0.325,3.206,0.94l0,0
		c2.958,1.798,4.858,5.876,4.836,10.375l-0.146,29.14c-0.008,1.631-0.271,3.242-0.769,4.721l-5.085,15.085
		c-0.255,0.756-4.072,15.784-4.44,16.444l1.187-10.157c-0.345,0.619-0.736,1.187-1.165,1.695l-4.263,5.036
		c-1.477,1.744-3.351,2.698-5.284,2.688l-21.241-0.106l-3.358-0.017l-4.314-6.07c-1.508-2.122-2.347-4.994-2.332-7.984l0.12-23.992
		l0.03-5.941c0.012-2.35,0.551-4.638,1.541-6.545l5.48-10.551c0.245-0.472,0.516-0.917,0.81-1.331l6.315-8.884
		c0.103-0.144,0.208-0.285,0.316-0.422l1.027-1.298c1.503-1.898,3.461-2.946,5.487-2.936L883.262,544.96z"/>
</g>
</svg>
